<svg xmlns="http://www.w3.org/2000/svg" xmlns:xlink="http://www.w3.org/1999/xlink" width="16" height="16" viewBox="0 0 16 16">
    <defs>
        <path id="a" d="M3.2 14h-.514L2 13.314 13.314 2l.943.943L3.199 14zM9.637 3.562A6.097 6.097 0 0 0 8 3.34C4.327 3.34 2.174 6.515 1.367 8c.318.585.844 1.431 1.59 2.243l-.892.892C.668 9.59 0 8 0 8s2.52-6 8-6c.99 0 1.883.196 2.683.517L9.638 3.562zm3.432 2.224l.892-.891C15.34 6.429 16 8 16 8s-2.52 6-8 6c-.974 0-1.854-.19-2.643-.5l1.049-1.05A6.1 6.1 0 0 0 8 12.66c3.673 0 5.826-3.175 6.633-4.66a11.446 11.446 0 0 0-1.563-2.214zm-5.21 5.21l3.137-3.137L11 8a3 3 0 0 1-3.14 2.997zM5.005 8.194a3 3 0 0 1 3.187-3.187L5.006 8.193z"/>
    </defs>
    <g fill="none" fill-rule="evenodd">
        <path d="M0 0h16v16H0z"/>
        <mask id="b" fill="#fff">
            <use xlink:href="#a"/>
        </mask>
        <use fill="#000" xlink:href="#a"/>
        <g fill="#D0021B" mask="url(#b)">
            <path d="M-.5-.5h17v17h-17z"/>
        </g>
    </g>
</svg>
